<?xml version="1.0" encoding="utf-8"?>
<!-- Generator: Adobe Illustrator 25.1.0, SVG Export Plug-In . SVG Version: 6.00 Build 0)  -->
<svg version="1.1" id="Layer_1" xmlns="http://www.w3.org/2000/svg" xmlns:xlink="http://www.w3.org/1999/xlink" x="0px" y="0px"
	 viewBox="0 0 841.89 595.28" style="enable-background:new 0 0 841.89 595.28;" xml:space="preserve">
<style type="text/css">
	.st0{fill:#00A7E1;}
	.st1{fill:#FFFFFF;}
</style>
<g>
	<path class="st0" d="M724.15,141.15c-8.81-11.94-17.99-23.82-30.13-32.55c-11.18-8.04-23.97-14.44-37.48-17.35
		c-7.59-1.63-15.75-2.61-23.51-2.61c-1.33,0-2.67,0.03-4,0.08c-52.77,2-96,44.89-98.43,97.62c-1.3,28.33,8.73,55.19,28.26,75.64
		c8.75,9.16,19.28,16.29,29.51,23.66c7.86,5.67,24.01,14.89,22.33,18.65c-1.68,3.77-12.16-5.23-18.28-8.84
		c-6.46-3.81-13.34-5.75-20.49-5.75c-7.33,0-14.34,1.84-20.83,5.49c-7.45,4.19-12.97,10.8-15.95,19.18c0,0-23.85,67.49-25.87,72.29
		c-2.02,4.8-3.98,2.88-3.98-0.43c0-3.31-0.04-30.74-0.04-30.74c0-5.07-0.95-9.77-2.84-13.99c-4.32-9.67-40.8-37.2-47.65-43.32
		c-3.23-2.89-6.98-5.08-11.2-6.53c-3.8-1.3-7.75-1.95-11.74-1.95c-4.01,0-7.96,0.66-11.79,1.96c-4.19,1.44-7.94,3.64-11.18,6.53
		c-2.48,2.21-4.57,4.8-6.25,7.72c-0.3-0.26-0.59-0.54-0.89-0.8c-6.09-5.1-13.31-8.92-21.44-11.36c-7.52-2.26-15.74-3.41-24.42-3.41
		h-28.48c-20.26,0-24.08,6.26-25.79,6.07c-2.29-0.25-33.73-33.73-38.32-37.46c-8.11-6.59-17.72-11.48-28.55-14.53
		c-9.87-2.78-20.65-4.19-32.03-4.19h-39.95c-8.63,0-15.93,0.87-22.29,2.69c-8.2,2.32-15.07,6.36-20.41,12.01
		c-5.24,5.51-8.91,12.4-10.93,20.46c-1.54,6.16-2.28,13.09-2.28,21.19c0,0,0,140.36,0,140.48c0,9.78,5.26,17.07,12.51,22.97
		c9.37,7.63,36.72,21.87,39.68,23.55c3.32,1.89,9.19,3.99,13.7,3.99c26.18,0,517.77-0.06,526.07-0.06c11,0,18.39-7.73,18.39-16.57
		v-47.88c0,0-0.13-8.45,2.79-19.13c2.29-8.42,7.94-16.73,7.94-16.73s11.78-19.62,17.56-28.8c5.78-9.17,9.95-17.21,9.95-35.95
		c0-18.75,0-94.87,0-103.29c0-8.42-0.77-21.42-13.01-46.29C735.21,158.32,732.32,152.22,724.15,141.15z"/>
	<path class="st1" d="M440.34,438.75c-4.91,0-9.01-0.47-12.27-1.39c-3.28-0.92-5.89-2.43-7.86-4.5c-1.97-2.07-3.36-4.75-4.17-8.02
		c-0.82-3.27-1.23-7.25-1.23-11.95v-89.87c0-2.72,0.46-5.12,1.39-7.2c0.93-2.07,2.18-3.82,3.76-5.24c1.58-1.41,3.41-2.48,5.49-3.19
		c2.07-0.71,4.2-1.07,6.38-1.07c2.18,0,4.3,0.35,6.38,1.07c2.07,0.71,3.91,1.77,5.49,3.19c1.58,1.42,2.83,3.17,3.76,5.24
		c0.93,2.08,1.39,4.48,1.39,7.2v82.34c0,1.96,0.33,3.25,0.99,3.84c0.65,0.6,1.91,0.9,3.76,0.9h36.34c2.4,0,4.45,0.42,6.14,1.23
		c1.69,0.82,3.05,1.91,4.09,3.28c1.04,1.36,1.8,2.89,2.29,4.58c0.49,1.69,0.74,3.36,0.74,4.99c0,1.64-0.25,3.33-0.74,5.07
		c-0.49,1.75-1.29,3.33-2.37,4.75c-1.09,1.42-2.45,2.57-4.09,3.44c-1.64,0.87-3.66,1.31-6.06,1.31H440.34z"/>
	<path class="st1" d="M278.54,429.91l-0.57-0.96l-7.16-12.01l-29.26-49.12c7.82-4.92,14.15-11.26,19-19
		c4.85-7.74,7.27-16.83,7.27-27.26v-2.6c0-9.7-1.63-18.09-4.88-25.19c-3.26-7.1-7.79-13-13.57-17.7
		c-5.79-4.71-12.67-8.18-20.63-10.42c-7.96-2.24-16.65-3.37-26.05-3.37h-39.95c-6.52,0-11.95,0.62-16.29,1.85
		c-4.34,1.23-7.82,3.22-10.42,5.97c-2.61,2.75-4.45,6.29-5.54,10.64c-1.09,4.34-1.63,9.63-1.63,15.85v118.72v16.67
		c0,2.82,2.29,5.1,5.1,5.1h0.96h33.35c2.82,0,5.1-2.28,5.1-5.1v-16.85v-36.46h27.79l20.88,37.45l10.02,17.96
		c0.01,0,0.01-0.01,0.02-0.01c0.8,1.77,2.57,3,4.64,3c0.25,0,0.49-0.04,0.73-0.07l0,0c-0.24,0.04-0.48,0.07-0.73,0.07h0.73h36.43
		c2.82,0,5.1-2.28,5.1-5.1C278.98,431.25,278.82,430.55,278.54,429.91z M218.21,335.9c-3.69,4.06-9.23,6.08-16.61,6.08h-28.23
		v-36.04c0-2.61,0.43-4.3,1.3-5.1c0.87-0.8,2.53-1.2,4.99-1.2h21.93c7.38,0,12.92,2.03,16.61,6.08c3.69,4.06,5.54,8.83,5.54,14.33
		v1.52C223.75,327.08,221.9,331.85,218.21,335.9z"/>
	<path class="st1" d="M401.28,331.87c-2.45-5.67-5.86-10.34-10.23-13.99c-4.37-3.65-9.55-6.39-15.55-8.18
		c-6-1.8-12.55-2.7-19.64-2.7h-28.48c-4.91,0-9,0.47-12.28,1.4c-3.27,0.93-5.89,2.43-7.85,4.5c-1.97,2.07-3.36,4.75-4.18,8.02
		c-0.82,3.27-1.22,7.26-1.22,11.95v82.34v18.47c0,2.82,2.28,5.1,5.1,5.1h23.52c2.82,0,5.1-2.28,5.1-5.1v-18.47V399.8h20.3
		c7.1,0,13.64-0.9,19.64-2.71c6-1.8,11.19-4.52,15.55-8.18c4.37-3.65,7.78-8.32,10.23-13.99c2.46-5.67,3.69-12.38,3.69-20.13V352
		C404.97,344.26,403.74,337.55,401.28,331.87z M371.41,353.96c0,2.29-0.38,4.48-1.15,6.55c-0.76,2.07-1.88,3.93-3.35,5.56
		c-1.48,1.64-3.27,2.92-5.4,3.85c-2.12,0.93-4.56,1.4-7.29,1.4h-18.66v-31.1c0-1.97,0.32-3.25,0.98-3.85c0.66-0.6,1.91-0.9,3.76-0.9
		h13.91c2.73,0,5.16,0.47,7.29,1.39c2.13,0.93,3.93,2.21,5.4,3.85c1.47,1.63,2.59,3.49,3.35,5.56c0.76,2.08,1.15,4.26,1.15,6.54
		V353.96z"/>
	<g>
		<path class="st1" d="M632.29,431.82l-0.07-0.19l-2.43-6.75l-37.73-104.95c-1.53-4.48-4.23-7.86-8.1-10.15
			c-3.87-2.29-7.88-3.44-12.03-3.44c-4.47,0-8.7,1.12-12.68,3.36c-3.98,2.23-6.79,5.64-8.43,10.23l-37.15,104.95l-2.5,7.05
			c0.01,0,0.02,0,0.02,0.01c-0.19,0.54-0.32,1.11-0.32,1.72c0,2.82,2.28,5.1,5.1,5.1h24.34c2.24,0,4.12-1.45,4.81-3.45
			c0,0.01-0.01,0.02-0.01,0.03c0.01,0,0.03,0,0.04,0l3.21-10.46l1.96-6.41h42.07l2.02,6.41l3.29,10.46c0.01,0,0.01,0,0.02,0
			c0.7,1.99,2.57,3.42,4.79,3.42h0.65h24.39c2.82,0,5.1-2.28,5.1-5.1C632.64,433,632.51,432.39,632.29,431.82z M558.83,390.8
			c0,0,8.89-30.05,10.02-33.5c0.82-2.47,1.53-4.59,2.54-4.59c1.02,0,1.72,2.14,2.55,4.68c1.19,3.63,9.93,33.41,9.93,33.41H558.83z"
			/>
	</g>
	<path class="st1" d="M734.32,315.91c-0.87-2.13-2.16-3.93-3.85-5.41c-1.69-1.47-3.52-2.54-5.48-3.19c-2.73-0.87-5.24-1.2-7.53-0.98
		c-2.29,0.22-4.39,0.82-6.3,1.8c-1.91,0.98-3.63,2.32-5.15,4.01c-1.54,1.69-2.9,3.52-4.1,5.48l-22.1,37.97l-22.92-37.97
		c-2.84-4.7-6.49-8.05-10.97-10.07c-4.47-2.02-9.33-1.94-14.56,0.25c-1.86,0.77-3.55,1.93-5.08,3.52c-1.53,1.59-2.67,3.42-3.44,5.49
		c-0.77,2.08-1.04,4.34-0.82,6.79c0.22,2.46,1.15,4.94,2.78,7.45l37.16,58.43v31.73v12.45c0,2.82,2.28,5.1,5.1,5.1h23.18
		c2.81,0,5.1-2.28,5.1-5.1v-10.69v-32.5l37.16-59.42c1.74-2.72,2.7-5.4,2.87-8.02C735.55,320.41,735.19,318.04,734.32,315.91z"/>
	<g>
		<path class="st1" d="M715.7,190.54c0-5.59-0.93-13.86-1.68-17.14c-8.76-37.87-43.39-65.84-84.27-64.28
			c-42.63,1.62-77.88,36.57-79.84,79.18c-2.2,47.72,35.85,87.11,83.08,87.11c11.84,0,23.09-2.49,33.28-6.95
			c5.69-2.49,12.26-1.81,17.07,2.12l25.8,21.04c2.63,2.15,6.56,0.28,6.56-3.11V190.54z"/>
		<path class="st0" d="M668.52,207.17c0-6.38-6.1-11.6-13.55-11.6h-50.98c-7.45,0-13.55,5.22-13.55,11.6v6.13h0.03
			c0.29,11.65,11.52,31.46,39.01,31.46c27.49,0,38.72-19.81,39.01-31.46h0.03V207.17z"/>
	</g>
</g>
</svg>
